<svg width="20" height="20" viewBox="0 0 20 20" fill="none" xmlns="http://www.w3.org/2000/svg">
<path fill-rule="evenodd" clip-rule="evenodd" d="M10 20C15.5228 20 20 15.5228 20 10C20 4.47715 15.5228 0 10 0C4.47715 0 0 4.47715 0 10C0 15.5228 4.47715 20 10 20ZM10.5042 13.08C10.4931 13.091 10.4818 13.1017 10.4703 13.1119C10.1559 13.3962 9.67042 13.3868 9.36737 13.0838L5.10231 8.8187C4.78956 8.50595 4.78956 7.99887 5.10231 7.68612C5.41506 7.37337 5.92213 7.37337 6.23488 7.68612L9.93387 11.3851L13.6329 7.68611C13.9456 7.37336 14.4527 7.37336 14.7654 7.68611C15.0782 7.99886 15.0782 8.50594 14.7654 8.81869L10.5042 13.08Z" fill="#C3DCFE"/>
</svg>
