<svg width="20" height="20" viewBox="0 0 20 20" fill="none" xmlns="http://www.w3.org/2000/svg">
<g clip-path="url(#clip0_9_132)">
<path d="M4 7.99998C3.99997 7.00919 4.2453 6.03381 4.71408 5.16094C5.18287 4.28807 5.86051 3.54487 6.68651 2.99771C7.51251 2.45055 8.46115 2.11646 9.44773 2.02526C10.4343 1.93406 11.4281 2.0886 12.3404 2.47508C13.2527 2.86156 14.0551 3.46794 14.676 4.24009C15.2968 5.01224 15.7168 5.92612 15.8984 6.90012C16.08 7.87413 16.0175 8.87794 15.7166 9.82194C15.4157 10.7659 14.8857 11.6207 14.174 12.31C13.971 12.506 13.815 12.71 13.721 12.929L12.959 14.698C12.9203 14.7876 12.8563 14.864 12.7747 14.9177C12.6931 14.9713 12.5976 15 12.5 15C12.6326 15 12.7598 15.0527 12.8536 15.1464C12.9473 15.2402 13 15.3674 13 15.5C13 15.6326 12.9473 15.7598 12.8536 15.8535C12.7598 15.9473 12.6326 16 12.5 16C12.6326 16 12.7598 16.0527 12.8536 16.1464C12.9473 16.2402 13 16.3674 13 16.5C13 16.6326 12.9473 16.7598 12.8536 16.8535C12.7598 16.9473 12.6326 17 12.5 17L12.276 17.447C12.193 17.6131 12.0654 17.7528 11.9075 17.8504C11.7496 17.9481 11.5677 17.9999 11.382 18H8.618C8.43234 17.9999 8.25037 17.9481 8.09248 17.8504C7.93458 17.7528 7.80699 17.6131 7.724 17.447L7.5 17C7.36739 17 7.24022 16.9473 7.14645 16.8535C7.05268 16.7598 7 16.6326 7 16.5C7 16.3674 7.05268 16.2402 7.14645 16.1464C7.24022 16.0527 7.36739 16 7.5 16C7.36739 16 7.24022 15.9473 7.14645 15.8535C7.05268 15.7598 7 15.6326 7 15.5C7 15.3674 7.05268 15.2402 7.14645 15.1464C7.24022 15.0527 7.36739 15 7.5 15C7.40219 15.0001 7.30648 14.9716 7.22472 14.9179C7.14296 14.8643 7.07874 14.7878 7.04 14.698L6.279 12.928C6.17004 12.6942 6.01611 12.4842 5.826 12.31C5.24763 11.7511 4.78783 11.0815 4.4741 10.3409C4.16036 9.6004 3.99912 8.80422 4 7.99998V7.99998ZM10 2.99998C9.00417 2.99981 8.03096 3.29701 7.20512 3.85349C6.37927 4.40997 5.73841 5.20038 5.36466 6.12342C4.99091 7.04646 4.9013 8.06007 5.10732 9.03437C5.31334 10.0087 5.80559 10.8992 6.521 11.592C6.784 11.846 7.035 12.156 7.197 12.533L7.83 14H12.172L12.804 12.533C12.966 12.156 13.217 11.846 13.48 11.592C14.1955 10.8992 14.6877 10.0085 14.8937 9.03412C15.0997 8.05974 15.01 7.04603 14.6362 6.12295C14.2623 5.19987 13.6213 4.40947 12.7953 3.85307C11.9693 3.29666 10.9959 2.99961 10 2.99998V2.99998Z" fill="#C3DCFE"/>
</g>
<defs>
<clipPath id="clip0_9_132">
<rect width="16" height="16" fill="white" transform="translate(2 2)"/>
</clipPath>
</defs>
</svg>
